<svg width="27" height="22" viewBox="0 0 27 22" fill="none" xmlns="http://www.w3.org/2000/svg">
<path d="M6.84144 15.1291V4.73836H18.6152L19.8721 3.38452H5.5686V15.1291H6.84144Z" fill="black"/>
<path d="M3.97764 1.6923H23.0702V15.2307H24.6612V1.26923C24.6612 0.932607 24.5355 0.609774 24.3117 0.371748C24.0879 0.133722 23.7844 0 23.4679 0H3.57988C3.2634 0 2.95988 0.133722 2.7361 0.371748C2.51232 0.609774 2.3866 0.932607 2.3866 1.26923V15.2307H3.97764V1.6923Z" fill="black"/>
<path d="M0 16.9231V19.8C0 20.3835 0.217915 20.9431 0.605807 21.3556C0.993699 21.7682 1.51979 22 2.06836 22H24.9316C25.4802 22 26.0063 21.7682 26.3942 21.3556C26.7821 20.9431 27 20.3835 27 19.8V16.9231H0ZM25.4567 19.8C25.4567 19.9347 25.4064 20.0638 25.3169 20.159C25.2274 20.2542 25.106 20.3077 24.9794 20.3077H2.03654C1.90994 20.3077 1.78854 20.2542 1.69902 20.159C1.60951 20.0638 1.55922 19.9347 1.55922 19.8V18.2177H9.47466C9.57412 18.4673 9.74013 18.6805 9.95219 18.8308C10.1643 18.9812 10.4131 19.0622 10.6679 19.0639H16.34C16.5949 19.0622 16.8437 18.9812 17.0558 18.8308C17.2678 18.6805 17.4338 18.4673 17.5333 18.2177H25.4567V19.8Z" fill="black"/>
</svg>
