<svg width="25" height="15" viewBox="0 0 25 15" fill="none" xmlns="http://www.w3.org/2000/svg">
<path d="M11.3681 13.6157C11.3681 14.3141 10.7434 14.8789 9.97393 14.8789C9.20313 14.8789 8.57837 14.3141 8.57837 13.6157C8.57837 12.9185 9.20313 12.3525 9.97393 12.3525C10.7434 12.3525 11.3681 12.9185 11.3681 13.6157Z" fill="#6B6C6A"/>
<path d="M21.1723 13.6157C21.1723 14.3141 20.5476 14.8789 19.7781 14.8789C19.0073 14.8789 18.3826 14.3141 18.3826 13.6157C18.3826 12.9185 19.0073 12.3525 19.7781 12.3525C20.5476 12.3525 21.1723 12.9185 21.1723 13.6157Z" fill="#6B6C6A"/>
<path d="M21.1987 11.2527H8.25995L5.47018 2.64793H0.0812988V0.19748H7.49591L10.2857 8.80224H19.1513L21.196 2.25831L24.006 2.25586L21.1987 11.2527Z" fill="#6B6C6A"/>
</svg>
