<svg width="25" height="20" viewBox="0 0 25 20" fill="none" xmlns="http://www.w3.org/2000/svg">
<path d="M12.5 12.6161L25 5.94553V3.10771H18.2757V2.23088C18.2757 1.00076 17.193 0 15.8621 0H9.13786C7.80704 0 6.72427 1.00076 6.72427 2.23088V3.10771H0V5.94553L12.5 12.6161ZM14.1811 9.03871H10.8189V7.68474H14.1811V9.03871ZM8.18912 2.23088C8.18912 1.74734 8.61471 1.35396 9.13786 1.35396H15.8621C16.3852 1.35396 16.8109 1.74734 16.8109 2.23088V3.10771H8.18912V2.23088Z" fill="black"/>
<path d="M12.5 14.1796L0 7.50903V20.0001H25V7.50903L12.5 14.1796Z" fill="black"/>
</svg>
