<svg width="25" height="20" viewBox="0 0 25 20" fill="none" xmlns="http://www.w3.org/2000/svg">
<path d="M17.9675 20C17.1605 20 16.3603 19.8859 15.5779 19.6585C12.1308 18.6567 8.93123 17.0251 6.32488 14.9401C3.71854 12.8551 1.67906 10.2954 0.426916 7.53774C0.0245383 6.65152 -0.0942072 5.73672 0.0740969 4.81863C0.231757 3.95867 0.648147 3.12382 1.2783 2.40432C1.91123 1.68165 2.75505 1.08058 3.71849 0.666105C4.74589 0.224131 5.86728 0 7.05161 0C7.41996 0 7.73831 0.20589 7.8155 0.494003L9.04172 5.0719C9.09724 5.2792 9.0176 5.49489 8.83026 5.64481L6.73498 7.32099C8.71156 10.4648 11.9189 13.0307 15.8487 14.6119L17.9439 12.9357C18.1313 12.7858 18.4009 12.7222 18.6601 12.7665L24.3824 13.7475C24.7426 13.8093 25 14.064 25 14.3586C25 15.3061 24.7198 16.2032 24.1673 17.0252C23.6492 17.7959 22.8978 18.471 21.9945 18.9773C21.0952 19.4814 20.0516 19.8145 18.9766 19.9407C18.6397 19.9802 18.3029 20 17.9675 20V20ZM6.42742 1.27729C4.86522 1.41525 3.47865 2.07031 2.55789 3.12163C1.52248 4.30381 1.28103 5.75785 1.89546 7.111C4.30279 12.4126 9.48428 16.5578 16.1113 18.4836C17.8027 18.9752 19.6203 18.782 21.098 17.9537C22.4122 17.2171 23.231 16.1078 23.4034 14.8581L18.7483 14.06L16.5601 15.8106C16.3272 15.9969 15.9734 16.0464 15.6755 15.9343C11.0277 14.1875 7.26557 11.1778 5.08206 7.45962C4.94207 7.22123 5.00389 6.93819 5.23674 6.75195L7.42494 5.0014L6.42742 1.27729Z" fill="black"/>
<path d="M24.2186 10.6246C23.7872 10.6246 23.4374 10.3447 23.4374 9.99959C23.4374 5.17502 18.5311 1.24995 12.5003 1.24995C12.0689 1.24995 11.7191 0.970116 11.7191 0.624974C11.7191 0.279832 12.0689 0 12.5003 0C15.8391 0 18.978 1.04011 21.3389 2.92879C23.6997 4.81746 24.9999 7.32857 24.9999 9.99959C24.9999 10.3447 24.6501 10.6246 24.2186 10.6246Z" fill="black"/>
<path d="M21.0938 10.6244C20.6623 10.6244 20.3125 10.3446 20.3125 9.99945C20.3125 6.55334 16.808 3.7497 12.5003 3.7497C12.0689 3.7497 11.7191 3.46987 11.7191 3.12473C11.7191 2.77959 12.0689 2.49976 12.5003 2.49976C17.6695 2.49976 21.875 5.86411 21.875 9.99945C21.875 10.3446 21.5252 10.6244 21.0938 10.6244Z" fill="black"/>
<path d="M17.9689 10.6245C17.5374 10.6245 17.1877 10.3447 17.1877 9.99955C17.1877 7.93186 15.085 6.2497 12.5003 6.2497C12.0689 6.2497 11.7191 5.96987 11.7191 5.62473C11.7191 5.27959 12.0689 4.99976 12.5003 4.99976C15.9465 4.99976 18.7501 7.24263 18.7501 9.99955C18.7501 10.3447 18.4004 10.6245 17.9689 10.6245Z" fill="black"/>
</svg>
