<svg width="26" height="28" viewBox="0 0 26 28" fill="none" xmlns="http://www.w3.org/2000/svg">
<path d="M25.8248 18.5961L24.1695 18.0281C24.0521 17.5867 23.8911 17.1605 23.6894 16.7568L24.5171 15.0798C24.5483 15.0158 24.5595 14.9425 24.5491 14.8709C24.5386 14.7993 24.507 14.7334 24.4591 14.6831L23.2591 13.3938C23.2129 13.3416 23.1524 13.3072 23.0867 13.2958C23.021 13.2845 22.9536 13.2967 22.8949 13.3307L21.3637 14.2323C20.9892 14.0017 20.5922 13.8172 20.1802 13.6823L19.6753 11.8791C19.6542 11.8118 19.6139 11.7537 19.5603 11.7132C19.5067 11.6726 19.4426 11.6518 19.3774 11.6537H17.7221C17.6572 11.6543 17.5942 11.6773 17.5422 11.7195C17.4901 11.7616 17.4517 11.8207 17.4324 11.8881L16.9275 13.6913C16.5127 13.8256 16.1129 14.0101 15.7357 14.2413L14.2377 13.3397C14.1789 13.3057 14.1116 13.2935 14.0459 13.3049C13.9802 13.3162 13.9197 13.3506 13.8735 13.4028L12.5824 14.7011C12.5345 14.7514 12.5029 14.8174 12.4925 14.8889C12.482 14.9605 12.4932 15.0338 12.5245 15.0978L13.3521 16.7388C13.149 17.148 12.988 17.5804 12.8721 18.0281L11.2168 18.5781C11.1549 18.5991 11.1007 18.641 11.062 18.6977C11.0233 18.7544 11.0022 18.823 11.0016 18.8936V20.6969C11.0022 20.7675 11.0233 20.8361 11.062 20.8928C11.1007 20.9496 11.1549 20.9914 11.2168 21.0124L12.8721 21.5624C13.0053 22.019 13.1857 22.4576 13.41 22.8698L12.5824 24.5828C12.5512 24.6468 12.54 24.7202 12.5504 24.7917C12.5609 24.8633 12.5924 24.9292 12.6403 24.9795L13.8404 26.2869C13.8866 26.3391 13.9471 26.3734 14.0128 26.3848C14.0785 26.3962 14.1458 26.384 14.2046 26.35L15.7523 25.4484C16.1179 25.6638 16.5036 25.836 16.9027 25.9623L17.4076 27.7655C17.4269 27.833 17.4653 27.892 17.5174 27.9342C17.5694 27.9763 17.6324 27.9993 17.6973 27.9999H19.3526C19.4174 27.9993 19.4804 27.9763 19.5325 27.9342C19.5845 27.892 19.623 27.833 19.6422 27.7655L20.1471 25.9623C20.5435 25.8358 20.9264 25.6635 21.2893 25.4484L22.8535 26.35C22.9123 26.384 22.9796 26.3962 23.0453 26.3848C23.111 26.3734 23.1715 26.3391 23.2177 26.2869L24.4178 24.9795C24.4657 24.9292 24.4972 24.8633 24.5077 24.7917C24.5181 24.7202 24.5069 24.6468 24.4757 24.5828L23.6481 22.8878C23.849 22.4901 24.0099 22.0699 24.1281 21.6345L25.7834 21.0846C25.8453 21.0636 25.8995 21.0217 25.9382 20.965C25.9769 20.9083 25.998 20.8396 25.9986 20.769V18.9297C26.0046 18.8614 25.9912 18.7927 25.9601 18.733C25.929 18.6733 25.8817 18.6255 25.8248 18.5961V18.5961ZM18.5166 22.8517C17.9733 22.8464 17.4436 22.6662 16.994 22.3339C16.5444 22.0015 16.195 21.5318 15.9897 20.9838C15.7844 20.4358 15.7324 19.8339 15.8402 19.2538C15.948 18.6737 16.2108 18.1412 16.5956 17.7233C16.9803 17.3054 17.4699 17.0207 18.0028 16.905C18.5356 16.7893 19.088 16.8478 19.5904 17.073C20.0929 17.2983 20.523 17.6803 20.8267 18.1711C21.1304 18.6618 21.2942 19.2394 21.2975 19.8313C21.2986 20.2271 21.2279 20.6192 21.0893 20.9851C20.9508 21.351 20.7472 21.6835 20.4903 21.9633C20.2334 22.2432 19.9282 22.465 19.5923 22.6159C19.2565 22.7668 18.8965 22.8439 18.5332 22.8427L18.5166 22.8517Z" fill="black"/>
<path d="M6.66477 22.0313C7.01066 21.9504 7.32886 21.7657 7.58337 21.498C7.83787 21.2303 8.01853 20.8904 8.10488 20.5166C8.6343 20.365 9.15638 20.1844 9.66913 19.9756V18.8847C9.6726 18.7164 9.69767 18.5495 9.74362 18.3888C9.15987 18.6662 8.55989 18.9011 7.94763 19.0921C7.76902 18.7069 7.4837 18.3928 7.13208 18.1942C6.78047 17.9955 6.3804 17.9224 5.98853 17.9853C5.59667 18.0481 5.2329 18.2437 4.94874 18.5443C4.66458 18.8449 4.47446 19.2352 4.40529 19.6601H4.03285C2.58488 17.8289 1.74521 15.5199 1.64922 13.1054C2.76147 11.4072 4.16713 9.96162 5.78746 8.84974C6.02853 9.11839 6.33387 9.30809 6.66887 9.39733C7.00386 9.48657 7.35511 9.47178 7.68278 9.35464C8.69065 11.1333 9.99612 12.69 11.5313 13.9439C11.5856 13.8409 11.6494 13.7442 11.7217 13.6553L12.4583 12.8709C10.9641 11.6836 9.70094 10.185 8.74217 8.46204C8.92977 8.13804 9.03014 7.76318 9.03185 7.38011V7.18175C12.0657 6.07871 15.3476 6.08821 18.376 7.2088C18.1534 8.24809 17.8345 9.26008 17.4242 10.2292C17.5085 10.2067 17.5943 10.1916 17.6808 10.1841H18.8809C19.1845 9.39403 19.4335 8.58031 19.6257 7.74977C19.9816 7.92107 20.321 8.11943 20.6686 8.3268C21.1978 9.64404 21.4792 11.0635 21.4962 12.5013L22.3239 12.0414C22.5588 11.9068 22.8199 11.8357 23.0853 11.8341H23.1515C23.0111 9.38965 22.2209 7.04253 20.8772 5.07884C19.5335 3.11515 17.6945 1.61971 15.5842 0.774822C13.4739 -0.0700642 11.1836 -0.227901 8.99238 0.320551C6.80119 0.869003 4.8038 2.10005 3.24369 3.86363C1.68358 5.62721 0.628141 7.84714 0.206043 10.2528C-0.216056 12.6585 0.0134161 15.1459 0.866485 17.412C1.71955 19.6781 3.15937 21.6248 5.01041 23.0149C6.86146 24.4051 9.04377 25.1786 11.2913 25.2411C11.1652 24.805 11.2009 24.3325 11.3906 23.9247L11.6224 23.4469H11.5644C9.84587 23.4484 8.1568 22.9604 6.66477 22.0313V22.0313ZM11.5562 1.79912C12.8863 1.80131 14.2025 2.09453 15.4266 2.66139C16.6507 3.22824 17.7578 4.05718 18.6822 5.09902C18.6822 5.32443 18.6822 5.55885 18.616 5.78425C15.2917 4.59074 11.6988 4.6256 8.39456 5.88343C8.11362 5.62159 7.76826 5.45543 7.40138 5.40557C7.17983 4.66038 7.01105 3.89779 6.89651 3.12449C8.32538 2.27016 9.9263 1.8148 11.5562 1.79912V1.79912ZM5.67987 3.92693C5.7869 4.51135 5.92228 5.0892 6.08542 5.65802C5.81467 5.8427 5.59139 6.09924 5.4365 6.40359C5.28161 6.70794 5.20018 7.05014 5.19983 7.39814V7.53338C3.94929 8.39053 2.81302 9.43114 1.82303 10.6259C2.28669 7.94278 3.6644 5.54981 5.67987 3.92693V3.92693Z" fill="black"/>
</svg>
