<svg width="25" height="22" viewBox="0 0 25 22" fill="none" xmlns="http://www.w3.org/2000/svg">
<path d="M23.7617 18.26C21.2617 17.1021 19.35 16.4597 17.6521 16.2059L17.8367 15.9823C17.9092 15.8947 17.9342 15.7828 17.9038 15.6776L17.5171 14.3165C17.6587 14.1409 17.7921 13.9594 17.9175 13.7731C19.4746 13.3082 20.2638 12.5217 20.3938 11.3593C21.1021 11.3216 21.6667 10.8075 21.6667 10.175V7.425C21.6667 6.79654 21.1092 6.28577 20.408 6.24177C20.3096 4.11181 19.2446 0 12.5 0C5.75498 0 4.68999 4.11181 4.59209 6.24177C3.89043 6.28577 3.33335 6.79654 3.33335 7.425V10.175C3.33335 10.8321 3.94087 11.3667 4.6875 11.3667H5.3125C5.55542 11.3667 5.78042 11.3054 5.97749 11.2064C6.21543 12.309 6.73999 13.3947 7.48247 14.3165L7.0958 15.6776C7.06582 15.7828 7.09038 15.8947 7.16289 15.9823L7.3479 16.2059C5.65 16.4597 3.73833 17.102 1.23789 18.26C0.47417 18.6138 0 19.3057 0 20.0658V21.6333C0 21.8357 0.18623 22 0.41665 22H10.4167H10.4171H10.5729H10.5733L14.4083 21.9967C14.415 21.9971 14.4209 22 14.4275 22H24.5834C24.8133 22 25 21.8357 25 21.6333V20.0658C25 19.3057 24.5254 18.6138 23.7617 18.26ZM18.4925 12.7585C18.7292 12.2555 18.9083 11.733 19.0221 11.2064C19.1842 11.2878 19.3654 11.3392 19.5604 11.3553C19.4883 11.88 19.2233 12.3721 18.4925 12.7585ZM5.93081 6.37119C5.77666 6.30081 5.60664 6.25681 5.42539 6.24323C5.52793 4.03296 6.65957 0.733348 12.5 0.733348C18.34 0.733348 19.4717 4.033 19.5742 6.24323C19.3929 6.25681 19.2229 6.30081 19.0688 6.37119C18.5446 3.59335 15.8025 1.46665 12.5 1.46665C9.19707 1.46665 6.45498 3.59335 5.93081 6.37119ZM7.95127 15.6893L8.13833 15.0315C8.13999 15.0333 8.14165 15.0344 8.14331 15.0359C9.15 15.9988 10.43 16.6771 11.8733 16.8315C11.8741 16.8315 11.875 16.8318 11.8762 16.8318L11.6875 17.2051L10.7454 19.0703L7.95127 15.6893ZM12.5 17.4031L13.5254 19.4333H11.4746L12.5 17.4031ZM10.925 21.2663L11.1746 20.1667H13.825L14.075 21.2638L10.925 21.2663ZM14.2541 19.0703L13.3121 17.2051L13.1237 16.8318C13.1246 16.8318 13.1254 16.8315 13.1262 16.8315C14.5695 16.6771 15.85 15.9988 16.8562 15.0359C16.8579 15.0344 16.86 15.0333 16.8612 15.0315L17.0487 15.6893L14.2541 19.0703ZM12.9166 13.5667C12.6862 13.5667 12.5 13.7309 12.5 13.9333C12.5 14.1357 12.6862 14.3 12.9166 14.3C14.4392 14.3 15.7012 14.2141 16.7367 14.0403C16.7208 14.0587 16.7038 14.0759 16.6875 14.0942C16.6729 14.1063 16.6538 14.1144 16.6413 14.1287C16.4983 14.2896 16.35 14.4418 16.1975 14.5845C16.1962 14.5856 16.195 14.5866 16.1938 14.5878C16.0933 14.6816 15.9879 14.7652 15.8837 14.851C14.865 15.6595 13.655 16.1333 12.5 16.1333C11.3446 16.1333 10.1346 15.6595 9.11626 14.8514C9.01167 14.7652 8.90625 14.6816 8.80586 14.5874C8.80459 14.5866 8.80376 14.5855 8.80254 14.5848C8.65005 14.4418 8.50171 14.2896 8.35835 14.1287C8.34585 14.1144 8.3271 14.1063 8.31211 14.0942C7.33042 13.0041 6.6667 11.551 6.6667 9.89991V7.42491V7.33326C6.66665 4.50265 9.28335 2.2 12.5 2.2C15.7163 2.2 18.3334 4.50265 18.3334 7.33335V7.425V9.9C18.3334 11.1177 17.9688 12.2258 17.3871 13.163C16.3921 13.4156 14.9633 13.5667 12.9166 13.5667Z" fill="black"/>
</svg>
