<svg width="25" height="17" viewBox="0 0 25 17" fill="none" xmlns="http://www.w3.org/2000/svg">
<path d="M22.8027 0H2.19727C0.987207 0 0 0.880338 0 1.96154V15.0385C0 16.116 0.982813 17 2.19727 17H22.8027C24.0098 17 25 16.1226 25 15.0385V1.96154C25 0.884 24.0172 0 22.8027 0ZM22.4993 1.30769L12.5466 10.1927L2.50776 1.30769H22.4993ZM1.46484 14.7677V2.22608L8.51948 8.46988L1.46484 14.7677ZM2.50063 15.6923L9.55972 9.39054L12.0332 11.5797C12.3195 11.8331 12.7816 11.8323 13.0667 11.5777L15.4785 9.42467L22.4994 15.6923H2.50063ZM23.5352 14.7676L16.5143 8.5L23.5352 2.23232V14.7676Z" fill="black"/>
</svg>
