<svg width="25" height="23" viewBox="0 0 25 23" fill="none" xmlns="http://www.w3.org/2000/svg">
<path d="M12.5 11.2485C16.1544 11.2485 19.1172 8.73047 19.1172 5.62429C19.1172 2.51804 18.1445 0 12.5 0C6.85548 0 5.88257 2.51804 5.88257 5.62429C5.88257 8.73047 8.84536 11.2485 12.5 11.2485Z" fill="black"/>
<path d="M0.00143139 19.8361C0.00019177 19.6467 -0.00104785 19.7827 0.00143139 19.8361V19.8361Z" fill="black"/>
<path d="M24.998 19.984C25.002 19.9322 24.9994 19.6243 24.998 19.984V19.984Z" fill="black"/>
<path d="M24.9842 19.6088C24.8616 14.1978 23.8517 12.6559 16.1235 11.6799C16.1235 11.6799 15.0356 12.6499 12.5 12.6499C9.96443 12.6499 8.87638 11.6799 8.87638 11.6799C1.23251 12.6453 0.161179 14.1643 0.0203127 19.433C0.0087617 19.8633 0.00340881 19.8859 0.00134277 19.8359C0.00181233 19.9295 0.00237558 20.1026 0.00237558 20.4044C0.00237558 20.4044 1.84228 22.9999 12.5 22.9999C23.1576 22.9999 24.9977 20.4044 24.9977 20.4044C24.9977 20.2105 24.9979 20.0757 24.9981 19.9839C24.9961 20.0148 24.992 19.9549 24.9842 19.6088Z" fill="black"/>
</svg>
