<svg width="60" height="54" viewBox="0 0 60 54" fill="none" xmlns="http://www.w3.org/2000/svg">
<path fill-rule="evenodd" clip-rule="evenodd" d="M37.752 2.93702C36.7425 2.00731 35.5367 1.26856 34.2055 0.764191C32.8743 0.25982 31.4444 0 30 0C28.5556 0 27.1258 0.25982 25.7945 0.764191C24.4633 1.26856 23.2575 2.00731 22.248 2.93702L19.9152 5.09035L16.5774 5.05323C15.1326 5.03784 13.6989 5.28259 12.3607 5.7731C11.0225 6.26361 9.80681 6.98997 8.78509 7.90946C7.76337 8.82895 6.95625 9.92302 6.41121 11.1273C5.86616 12.3316 5.5942 13.6218 5.6113 14.9221L5.6488 17.926L3.26356 20.0253C2.23048 20.9338 1.4096 22.0189 0.849154 23.217C0.288707 24.415 0 25.7018 0 27.0017C0 28.3016 0.288707 29.5884 0.849154 30.7864C1.4096 31.9844 2.23048 33.0696 3.26356 33.9781L5.65255 36.0774L5.6113 39.0813C5.5942 40.3815 5.86616 41.6718 6.41121 42.8761C6.95625 44.0804 7.76337 45.1744 8.78509 46.0939C9.80681 47.0134 11.0225 47.7398 12.3607 48.2303C13.6989 48.7208 15.1326 48.9655 16.5774 48.9501L19.9152 48.9164L22.248 51.063C23.2575 51.9927 24.4633 52.7314 25.7945 53.2358C27.1258 53.7402 28.5556 54 30 54C31.4444 54 32.8743 53.7402 34.2055 53.2358C35.5367 52.7314 36.7425 51.9927 37.752 51.063L40.0848 48.913L43.4226 48.9501C44.8674 48.9655 46.3011 48.7208 47.6393 48.2303C48.9775 47.7398 50.1932 47.0134 51.2149 46.0939C52.2366 45.1744 53.0438 44.0804 53.5888 42.8761C54.1338 41.6718 54.4058 40.3815 54.3887 39.0813L54.3512 36.0774L56.7364 33.9781C57.7695 33.0696 58.5904 31.9844 59.1508 30.7864C59.7113 29.5884 60 28.3016 60 27.0017C60 25.7018 59.7113 24.415 59.1508 23.217C58.5904 22.0189 57.7695 20.9338 56.7364 20.0253L54.3474 17.926L54.3887 14.9221C54.4058 13.6218 54.1338 12.3316 53.5888 11.1273C53.0438 9.92302 52.2366 8.82895 51.2149 7.90946C50.1932 6.98997 48.9775 6.26361 47.6393 5.7731C46.3011 5.28259 44.8674 5.03784 43.4226 5.05323L40.0848 5.08698L37.752 2.9404V2.93702ZM31.8752 20.2514C31.8752 19.8039 31.6776 19.3746 31.326 19.0581C30.9743 18.7417 30.4973 18.5639 30 18.5639C29.5027 18.5639 29.0257 18.7417 28.674 19.0581C28.3224 19.3746 28.1248 19.8039 28.1248 20.2514V25.3141H22.4992C22.0019 25.3141 21.525 25.4919 21.1733 25.8084C20.8216 26.1249 20.6241 26.5541 20.6241 27.0017C20.6241 27.4493 20.8216 27.8785 21.1733 28.195C21.525 28.5115 22.0019 28.6893 22.4992 28.6893H28.1248V33.7519C28.1248 34.1995 28.3224 34.6288 28.674 34.9452C29.0257 35.2617 29.5027 35.4395 30 35.4395C30.4973 35.4395 30.9743 35.2617 31.326 34.9452C31.6776 34.6288 31.8752 34.1995 31.8752 33.7519V28.6893H37.5008C37.9981 28.6893 38.475 28.5115 38.8267 28.195C39.1784 27.8785 39.3759 27.4493 39.3759 27.0017C39.3759 26.5541 39.1784 26.1249 38.8267 25.8084C38.475 25.4919 37.9981 25.3141 37.5008 25.3141H31.8752V20.2514Z" fill="white"/>
</svg>
