<svg width="60" height="56" viewBox="0 0 60 56" fill="none" xmlns="http://www.w3.org/2000/svg">
<path d="M24.9423 39.6389C24.6587 39.1813 24.2748 38.7816 23.8144 38.4643C23.354 38.1471 22.8269 37.9191 22.2656 37.7944C21.7391 37.6508 21.2046 37.5321 20.6645 37.4389V32.4C21.7383 32.5047 22.7628 32.865 23.6345 33.4444C23.6947 33.493 23.7648 33.5302 23.8409 33.5541C23.9169 33.578 23.9974 33.588 24.0776 33.5836C24.1579 33.5793 24.2365 33.5605 24.3088 33.5286C24.3812 33.4966 24.4459 33.4519 24.4993 33.3972C24.5526 33.3425 24.5936 33.2788 24.6199 33.2096C24.6462 33.1405 24.6572 33.0674 24.6524 32.9944C24.6475 32.9214 24.627 32.85 24.5918 32.7842C24.5566 32.7184 24.5075 32.6596 24.4473 32.6111C23.3536 31.8453 22.0402 31.3824 20.6645 31.2778V29.5556C20.6645 29.4082 20.6001 29.2669 20.4855 29.1627C20.3709 29.0585 20.2155 29 20.0534 29C19.8913 29 19.7359 29.0585 19.6213 29.1627C19.5067 29.2669 19.4423 29.4082 19.4423 29.5556V31.2222C16.7534 31.2778 15.2684 32.4944 14.8162 33.5444C14.5145 34.2206 14.4859 34.972 14.7353 35.6655C14.9847 36.359 15.4962 36.9498 16.179 37.3333C17.1729 37.8841 18.2861 38.2328 19.4423 38.3556V43.4444C17.8469 43.3714 16.3185 42.8382 15.079 41.9222C15.0237 41.8624 14.9551 41.8138 14.8777 41.7797C14.8003 41.7456 14.7159 41.7267 14.6299 41.7243C14.544 41.7219 14.4585 41.736 14.3789 41.7657C14.2994 41.7954 14.2276 41.8401 14.1684 41.8967C14.1091 41.9533 14.0636 42.0207 14.035 42.0944C14.0063 42.1681 13.9951 42.2465 14.002 42.3244C14.0089 42.4023 14.0338 42.478 14.0752 42.5466C14.1165 42.6151 14.1732 42.675 14.2418 42.7222C15.7035 43.841 17.533 44.4859 19.4423 44.5556V46.2222C19.4423 46.3696 19.5067 46.5109 19.6213 46.6151C19.7359 46.7192 19.8913 46.7778 20.0534 46.7778C20.2155 46.7778 20.3709 46.7192 20.4855 46.6151C20.6001 46.5109 20.6645 46.3696 20.6645 46.2222V44.5556C22.3879 44.45 24.374 43.95 25.1256 41.9111C25.2616 41.5401 25.3155 41.1483 25.284 40.7583C25.2525 40.3683 25.1364 39.9879 24.9423 39.6389V39.6389ZM16.8695 36.4C16.4233 36.1585 16.0864 35.7803 15.9195 35.3332C15.7526 34.8861 15.7666 34.3996 15.959 33.9611C16.0262 33.7944 16.7106 32.4 19.4423 32.3333V37.2222C18.5307 37.1156 17.654 36.8354 16.8695 36.4V36.4ZM23.9645 41.5333C23.5245 42.7222 22.5468 43.2944 20.6645 43.4222V38.5722C21.0556 38.65 21.459 38.7389 21.8868 38.8556C22.2909 38.939 22.6721 39.0963 23.0072 39.3179C23.3423 39.5394 23.6244 39.8207 23.8362 40.1444C24.0759 40.5747 24.1219 41.0728 23.9645 41.5333V41.5333Z" fill="white"/>
<path d="M45 0H24.375C23.3203 0 22.4316 0.33724 21.709 1.01172C20.9863 1.6862 20.625 2.51562 20.625 3.5H41.25V17.5H56.25V45.5H43.125V49H56.25C57.3047 49 58.1934 48.6628 58.916 47.9883C59.6387 47.3138 60 46.4844 60 45.5V14L45 0ZM45 14V4.92188L54.668 14H45ZM3.75 7C2.69531 7 1.80664 7.33724 1.08398 8.01172C0.361328 8.6862 0 9.51562 0 10.5V52.5C0 53.4844 0.361328 54.3138 1.08398 54.9883C1.80664 55.6628 2.69531 56 3.75 56H35.625C36.6797 56 37.5684 55.6628 38.291 54.9883C39.0137 54.3138 39.375 53.4844 39.375 52.5V21L24.375 7H3.75ZM35.625 52.5H3.75V10.5H20.625V24.5H35.625V52.5ZM24.375 21V11.9219L34.043 21H24.375Z" fill="white"/>
</svg>
