<svg width="26" height="28" viewBox="0 0 26 28" fill="none" xmlns="http://www.w3.org/2000/svg">
<path d="M24.4603 23.6204L18.481 18.0991C17.8626 17.4944 17.2015 17.2186 16.6683 17.2443C18.2552 15.2238 19.0603 12.6148 18.915 9.96402C18.7697 7.31323 17.6852 4.82638 15.8887 3.02455C14.0923 1.22273 11.7233 0.24578 9.27826 0.298408C6.83319 0.351035 4.50176 1.42916 2.77249 3.30687C1.04322 5.18458 0.0503283 7.71614 0.00186123 10.3711C-0.0466059 13.0261 0.853114 15.5984 2.51249 17.549C4.17187 19.4997 6.46213 20.6773 8.90336 20.8351C11.3446 20.9929 13.7473 20.1186 15.6081 18.3955C15.5829 18.9745 15.8385 19.6923 16.3954 20.3638L21.4801 26.8564C22.351 27.9065 23.7724 27.9955 24.6401 27.0534C25.5078 26.1112 25.4258 24.566 24.4587 23.6221L24.4603 23.6204ZM9.46636 17.4259C7.79269 17.4259 6.18757 16.704 5.00411 15.4189C3.82065 14.1339 3.15579 12.391 3.15579 10.5736C3.15579 8.75629 3.82065 7.01339 5.00411 5.72834C6.18757 4.44329 7.79269 3.72135 9.46636 3.72135C11.14 3.72135 12.7451 4.44329 13.9286 5.72834C15.1121 7.01339 15.7769 8.75629 15.7769 10.5736C15.7769 12.391 15.1121 14.1339 13.9286 15.4189C12.7451 16.704 11.14 17.4259 9.46636 17.4259Z" fill="black"/>
</svg>
