<svg width="60" height="55" viewBox="0 0 60 55" fill="none" xmlns="http://www.w3.org/2000/svg">
<path d="M2.66824 48.0508H34.4118C35.8712 48.0508 37.0588 46.8959 37.0588 45.4767V12.8708C37.0588 12.8313 37.0412 12.797 37.0359 12.7592C37.031 12.7232 37.0233 12.6877 37.0129 12.6528C36.9784 12.5066 36.904 12.372 36.7976 12.2633L24.4465 0.252267C24.3065 0.123695 24.1277 0.0424477 23.9365 0.0205932C23.8994 0.017161 23.8641 0 23.8235 0H2.65765C1.19294 0 0 1.15494 0 2.57415V45.4767C0 46.8959 1.19647 48.0508 2.66824 48.0508ZM24.7059 2.92939L34.0465 12.0127H25.5882C25.3542 12.0127 25.1298 11.9223 24.9643 11.7614C24.7988 11.6005 24.7059 11.3822 24.7059 11.1547V2.92939ZM1.76471 2.57415C1.76471 2.10051 2.16529 1.7161 2.65765 1.7161H22.9412V11.1547C22.9412 12.5739 24.1288 13.7288 25.5882 13.7288H35.2941V45.4767C35.2941 45.7043 35.2012 45.9225 35.0357 46.0834C34.8702 46.2443 34.6458 46.3347 34.4118 46.3347H2.66824C2.55097 46.3361 2.43458 46.315 2.32571 46.2726C2.21683 46.2302 2.11761 46.1674 2.03371 46.0877C1.94981 46.008 1.88287 45.9131 1.83671 45.8082C1.79056 45.7034 1.76609 45.5907 1.76471 45.4767V2.57415Z" fill="white"/>
<path d="M7.94116 20.5933H29.1176C29.3516 20.5933 29.5761 20.5029 29.7415 20.342C29.907 20.1811 30 19.9628 30 19.7352C30 19.5077 29.907 19.2894 29.7415 19.1285C29.5761 18.9676 29.3516 18.8772 29.1176 18.8772H7.94116C7.70715 18.8772 7.48272 18.9676 7.31724 19.1285C7.15177 19.2894 7.05881 19.5077 7.05881 19.7352C7.05881 19.9628 7.15177 20.1811 7.31724 20.342C7.48272 20.5029 7.70715 20.5933 7.94116 20.5933V20.5933Z" fill="white"/>
<path d="M7.94116 27.4576H29.1176C29.3516 27.4576 29.5761 27.3672 29.7415 27.2062C29.907 27.0453 30 26.8271 30 26.5995C30 26.3719 29.907 26.1537 29.7415 25.9928C29.5761 25.8319 29.3516 25.7415 29.1176 25.7415H7.94116C7.70715 25.7415 7.48272 25.8319 7.31724 25.9928C7.15177 26.1537 7.05881 26.3719 7.05881 26.5995C7.05881 26.8271 7.15177 27.0453 7.31724 27.2062C7.48272 27.3672 7.70715 27.4576 7.94116 27.4576V27.4576Z" fill="white"/>
<path d="M7.94116 13.7288H16.7647C16.9987 13.7288 17.2231 13.6384 17.3886 13.4775C17.5541 13.3166 17.647 13.0983 17.647 12.8707C17.647 12.6432 17.5541 12.4249 17.3886 12.264C17.2231 12.1031 16.9987 12.0127 16.7647 12.0127H7.94116C7.70715 12.0127 7.48272 12.1031 7.31724 12.264C7.15177 12.4249 7.05881 12.6432 7.05881 12.8707C7.05881 13.0983 7.15177 13.3166 7.31724 13.4775C7.48272 13.6384 7.70715 13.7288 7.94116 13.7288V13.7288Z" fill="white"/>
<path d="M7.94116 34.3221H29.1176C29.3516 34.3221 29.5761 34.2317 29.7415 34.0707C29.907 33.9098 30 33.6916 30 33.464C30 33.2364 29.907 33.0182 29.7415 32.8573C29.5761 32.6964 29.3516 32.606 29.1176 32.606H7.94116C7.70715 32.606 7.48272 32.6964 7.31724 32.8573C7.15177 33.0182 7.05881 33.2364 7.05881 33.464C7.05881 33.6916 7.15177 33.9098 7.31724 34.0707C7.48272 34.2317 7.70715 34.3221 7.94116 34.3221V34.3221Z" fill="white"/>
<path d="M7.94116 41.1866H29.1176C29.3516 41.1866 29.5761 41.0962 29.7415 40.9352C29.907 40.7743 30 40.5561 30 40.3285C30 40.1009 29.907 39.8827 29.7415 39.7218C29.5761 39.5609 29.3516 39.4705 29.1176 39.4705H7.94116C7.70715 39.4705 7.48272 39.5609 7.31724 39.7218C7.15177 39.8827 7.05881 40.1009 7.05881 40.3285C7.05881 40.5561 7.15177 40.7743 7.31724 40.9352C7.48272 41.0962 7.70715 41.1866 7.94116 41.1866V41.1866Z" fill="white"/>
<path d="M37.9412 8.5806H45.8824V18.0192C45.8824 19.4384 47.07 20.5933 48.5294 20.5933H58.2353V52.3412C58.2353 52.5688 58.1423 52.787 57.9769 52.9479C57.8114 53.1088 57.587 53.1992 57.353 53.1992H25.6094C25.4922 53.2006 25.3758 53.1795 25.2669 53.1371C25.158 53.0947 25.0588 53.0319 24.9749 52.9522C24.891 52.8725 24.8241 52.7776 24.7779 52.6727C24.7317 52.5679 24.7073 52.4552 24.7059 52.3412V50.6251C24.7059 50.3975 24.6129 50.1793 24.4475 50.0184C24.282 49.8574 24.0576 49.767 23.8235 49.767C23.5895 49.767 23.3651 49.8574 23.1996 50.0184C23.0342 50.1793 22.9412 50.3975 22.9412 50.6251V52.3412C22.9412 53.7604 24.1377 54.9153 25.6094 54.9153H57.353C58.8124 54.9153 60 53.7604 60 52.3412V19.7353C60 19.6958 59.9824 19.6615 59.9771 19.6237C59.9722 19.5877 59.9645 19.5522 59.9541 19.5173C59.9196 19.3711 59.8452 19.2365 59.7388 19.1278L47.3877 7.11677C47.2487 6.98713 47.0692 6.90622 46.8777 6.88681C46.8406 6.88166 46.8053 6.8645 46.7647 6.8645H37.9412C37.7072 6.8645 37.4827 6.9549 37.3173 7.11582C37.1518 7.27674 37.0588 7.49498 37.0588 7.72255C37.0588 7.95012 37.1518 8.16837 37.3173 8.32929C37.4827 8.4902 37.7072 8.5806 37.9412 8.5806ZM48.5294 18.8772C48.2954 18.8772 48.071 18.7868 47.9055 18.6259C47.74 18.465 47.6471 18.2467 47.6471 18.0192V9.79389L56.9877 18.8772H48.5294Z" fill="white"/>
<path d="M41.4706 27.4576H52.0588C52.2928 27.4576 52.5173 27.3672 52.6827 27.2062C52.8482 27.0453 52.9412 26.8271 52.9412 26.5995C52.9412 26.3719 52.8482 26.1537 52.6827 25.9928C52.5173 25.8319 52.2928 25.7415 52.0588 25.7415H41.4706C41.2366 25.7415 41.0121 25.8319 40.8467 25.9928C40.6812 26.1537 40.5882 26.3719 40.5882 26.5995C40.5882 26.8271 40.6812 27.0453 40.8467 27.2062C41.0121 27.3672 41.2366 27.4576 41.4706 27.4576Z" fill="white"/>
<path d="M41.4706 34.3221H52.0588C52.2928 34.3221 52.5173 34.2317 52.6827 34.0707C52.8482 33.9098 52.9412 33.6916 52.9412 33.464C52.9412 33.2364 52.8482 33.0182 52.6827 32.8573C52.5173 32.6964 52.2928 32.606 52.0588 32.606H41.4706C41.2366 32.606 41.0121 32.6964 40.8467 32.8573C40.6812 33.0182 40.5882 33.2364 40.5882 33.464C40.5882 33.6916 40.6812 33.9098 40.8467 34.0707C41.0121 34.2317 41.2366 34.3221 41.4706 34.3221Z" fill="white"/>
<path d="M41.4706 41.1866H52.0588C52.2928 41.1866 52.5173 41.0962 52.6827 40.9352C52.8482 40.7743 52.9412 40.5561 52.9412 40.3285C52.9412 40.1009 52.8482 39.8827 52.6827 39.7218C52.5173 39.5609 52.2928 39.4705 52.0588 39.4705H41.4706C41.2366 39.4705 41.0121 39.5609 40.8467 39.7218C40.6812 39.8827 40.5882 40.1009 40.5882 40.3285C40.5882 40.5561 40.6812 40.7743 40.8467 40.9352C41.0121 41.0962 41.2366 41.1866 41.4706 41.1866Z" fill="white"/>
<path d="M41.4706 48.0508H52.0588C52.2928 48.0508 52.5173 47.9604 52.6827 47.7995C52.8482 47.6386 52.9412 47.4203 52.9412 47.1928C52.9412 46.9652 52.8482 46.7469 52.6827 46.586C52.5173 46.4251 52.2928 46.3347 52.0588 46.3347H41.4706C41.2366 46.3347 41.0121 46.4251 40.8467 46.586C40.6812 46.7469 40.5882 46.9652 40.5882 47.1928C40.5882 47.4203 40.6812 47.6386 40.8467 47.7995C41.0121 47.9604 41.2366 48.0508 41.4706 48.0508Z" fill="white"/>
</svg>
