<svg width="25" height="23" viewBox="0 0 25 23" fill="none" xmlns="http://www.w3.org/2000/svg">
<path d="M0.0143627 16.1294C-0.0968679 19.2241 0.459285 21.6795 0.945919 22.1271C1.43255 22.5747 4.11599 23.099 7.46681 22.9839L0.0143627 16.1294V16.1294ZM14.0016 0.3486C10.762 0.885708 7.34168 2.06223 4.79728 4.41528C2.25288 6.76833 0.959823 9.90146 0.375862 12.8811L10.9845 22.6386C14.238 22.1143 17.6444 20.925 20.1888 18.5719C22.7332 16.2189 24.0263 13.0857 24.6102 10.1061L14.0016 0.3486V0.3486ZM9.5802 15.9759L7.63366 14.1855L15.4198 7.02409L17.3663 8.81446L9.5802 15.9759ZM24.9856 6.87063C25.0969 3.77587 24.5407 1.32051 24.0541 0.87292C23.5674 0.42533 20.884 -0.0989909 17.5332 0.0161038L24.9856 6.87063V6.87063Z" fill="black"/>
</svg>
