<svg width="25" height="24" viewBox="0 0 25 24" fill="none" xmlns="http://www.w3.org/2000/svg">
<path d="M7.5 12H22.5C23.1901 12 23.7793 12.1652 24.2676 12.4955C24.7559 12.8259 25 13.2321 25 13.7143C25 14.1964 24.7526 14.6027 24.2578 14.933C23.763 15.2634 23.1771 15.4286 22.5 15.4286H21.5625L21.9531 23.5714C21.9661 23.6875 21.9108 23.7879 21.7871 23.8728C21.6634 23.9576 21.5169 24 21.3477 24H20C19.8438 24 19.707 23.9576 19.5898 23.8728C19.4727 23.7879 19.4076 23.6875 19.3945 23.5714L19.043 15.4286H8.75L6.75781 23.5848C6.69271 23.8616 6.49089 24 6.15234 24H4.70703C4.53776 24 4.39128 23.9576 4.26758 23.8728C4.14388 23.7879 4.08854 23.692 4.10156 23.5848L5.95703 15.4286C5.90495 15.4107 5.61849 15.3862 5.09766 15.3549C4.57682 15.3237 4.14388 15.2054 3.79883 15C3.45378 14.7946 3.17708 14.4375 2.96875 13.9286C2.76042 13.4018 2.58789 12.7321 2.45117 11.9196C2.31445 11.1071 2.18424 10.1183 2.06055 8.95313C1.93685 7.78795 1.84896 7.02232 1.79688 6.65625C1.73177 6.15625 1.41602 5.3683 0.849609 4.29241C0.283203 3.21652 0 2.35714 0 1.71429C0 1.30357 0.205078 0.915179 0.615234 0.549107C1.02539 0.183036 1.65365 0 2.5 0C3.26823 0 3.84115 0.167411 4.21875 0.502232C4.59635 0.837054 4.94141 1.35714 5.25391 2.0625C6.4388 4.72321 7.1875 8.03571 7.5 12Z" fill="black"/>
</svg>
