<svg width="24" height="28" viewBox="0 0 24 28" fill="none" xmlns="http://www.w3.org/2000/svg">
<path d="M24 15.1054C24 22.2189 19.2218 28 12 28C4.77818 28 0 22.2189 0 15.1054C2.41043 15.1254 4.75499 15.8827 6.70935 17.2726C8.66372 18.6625 10.1313 20.6163 10.9091 22.8636V12.9563H5.45455C4.58656 12.9563 3.75413 12.6167 3.14038 12.0121C2.52662 11.4076 2.18182 10.5876 2.18182 9.73265V3.28534C2.18182 3.05982 2.25386 2.84 2.38774 2.65704C2.52161 2.47409 2.71054 2.33726 2.92775 2.26594C3.14496 2.19462 3.37945 2.19243 3.598 2.25967C3.81655 2.32692 4.00808 2.46019 4.14545 2.64061L7.48364 6.93882L11.0836 0.491514C11.1825 0.340704 11.3182 0.216705 11.4783 0.130845C11.6384 0.0449847 11.8177 0 12 0C12.1823 0 12.3616 0.0449847 12.5217 0.130845C12.6818 0.216705 12.8175 0.340704 12.9164 0.491514L16.5164 6.93882L19.8545 2.64061C19.9919 2.46019 20.1835 2.32692 20.402 2.25967C20.6205 2.19243 20.855 2.19462 21.0722 2.26594C21.2895 2.33726 21.4784 2.47409 21.6123 2.65704C21.7461 2.84 21.8182 3.05982 21.8182 3.28534V9.73265C21.8182 10.5876 21.4734 11.4076 20.8596 12.0121C20.2459 12.6167 19.4134 12.9563 18.5455 12.9563H13.0909V22.8636C13.8687 20.6163 15.3363 18.6625 17.2906 17.2726C19.245 15.8827 21.5896 15.1254 24 15.1054V15.1054Z" fill="black"/>
</svg>
