<svg width="23" height="30" viewBox="0 0 23 30" fill="none" xmlns="http://www.w3.org/2000/svg">
<path d="M20.125 0.015L2.875 0C2.1125 0 1.38123 0.31607 0.842068 0.878679C0.302901 1.44129 0 2.20435 0 3V27C0 28.65 1.29375 30 2.875 30H20.125C21.7062 30 23 28.65 23 27V3C23 1.335 21.7062 0.015 20.125 0.015ZM18.6875 27H4.3125C3.52187 27 2.875 26.325 2.875 25.5V14.97C2.875 14.145 3.52187 13.47 4.3125 13.47H18.6875C19.4781 13.47 20.125 14.145 20.125 14.97V25.5C20.125 26.325 19.4781 27 18.6875 27ZM18.6875 10.5H4.3125C3.52187 10.5 2.875 9.825 2.875 9V4.5C2.875 3.675 3.52187 3 4.3125 3H18.6875C19.4781 3 20.125 3.675 20.125 4.5V9C20.125 9.825 19.4781 10.5 18.6875 10.5ZM7.1875 4.5C7.97812 4.5 8.625 5.175 8.625 6V7.5C8.625 8.325 7.97812 9 7.1875 9C6.39687 9 5.75 8.325 5.75 7.5V6C5.75 5.175 6.39687 4.5 7.1875 4.5ZM7.1875 15C7.97812 15 8.625 15.675 8.625 16.5V21C8.625 21.825 7.97812 22.5 7.1875 22.5C6.39687 22.5 5.75 21.825 5.75 21V16.5C5.75 15.675 6.39687 15 7.1875 15Z" fill="black"/>
</svg>
