<svg width="23" height="33" viewBox="0 0 23 33" fill="none" xmlns="http://www.w3.org/2000/svg">
<path d="M20.4444 0H2.55556C1.87778 0 1.22777 0.248341 0.748505 0.690391C0.269246 1.13244 0 1.73199 0 2.35714V30.6429C0 31.268 0.269246 31.8676 0.748505 32.3096C1.22777 32.7517 1.87778 33 2.55556 33H20.4444C21.1222 33 21.7722 32.7517 22.2515 32.3096C22.7308 31.8676 23 31.268 23 30.6429V2.35714C23 1.73199 22.7308 1.13244 22.2515 0.690391C21.7722 0.248341 21.1222 0 20.4444 0ZM12.7778 30.6429H10.2222V28.2857H12.7778V30.6429ZM2.55556 25.9286V2.35714H20.4444V25.9286H2.55556Z" fill="black"/>
</svg>
