<svg width="23" height="24" viewBox="0 0 23 24" fill="none" xmlns="http://www.w3.org/2000/svg">
<path d="M5.91501 1.27738C5.17269 2.10954 4.75583 3.23687 4.75583 4.41217C4.75583 5.58747 5.17269 6.7148 5.91501 7.54696L15.4941 18.2444C16.1485 18.9886 16.1485 20.1997 15.4941 20.9187C14.8284 21.663 13.7566 21.663 13.0909 20.9187L8.30697 15.57L9.50294 14.2328L5.52011 9.76717L5.11393 10.2213L3.52306 8.43C3.30783 8.19348 3.01812 8.06094 2.71634 8.06094C2.41455 8.06094 2.12484 8.19348 1.90962 8.43L0.330022 10.2213C-0.110007 10.7385 -0.110007 11.508 0.330022 12L1.90962 13.7787L1.526 14.2328L5.52011 18.6859L6.71609 17.3487L11.5 22.7226C12.245 23.5413 13.2479 24 14.2925 24C15.3371 24 16.3399 23.5413 17.085 22.7226C18.6307 20.9818 18.6307 18.1813 17.085 16.4657L7.50589 5.75565C6.85148 5.01138 6.85148 3.80035 7.50589 3.0813C8.17157 2.33703 9.24344 2.33703 9.90913 3.0813L14.693 8.43L13.4971 9.76717L17.4799 14.2328L17.8861 13.7787L19.4769 15.57C19.917 16.062 20.6391 16.062 21.0904 15.57L22.67 13.7787C23.11 13.2615 23.11 12.492 22.67 12L21.0904 10.2213L21.474 9.76717L17.4799 5.31413L16.2839 6.65131L11.5 1.27738C10.755 0.458727 9.75212 0 8.70751 0C7.66289 0 6.66006 0.458727 5.91501 1.27738V1.27738ZM1.1311 11.1043L2.72198 9.32565L4.32414 11.1043L2.72198 12.8957L1.1311 11.1043ZM18.6759 12.8957L20.278 11.1043L21.8689 12.8957L20.278 14.6743L18.6759 12.8957Z" fill="black"/>
</svg>
