<svg width="27" height="24" viewBox="0 0 27 24" fill="none" xmlns="http://www.w3.org/2000/svg">
<path d="M26.4601 10.9457L20.2508 6.0188V2.66319C20.2838 1.99065 20.0452 1.33263 19.5872 0.8334C19.1292 0.334166 18.4892 0.0344624 17.8076 0H2.41932C1.74247 0.0412256 1.10933 0.343861 0.657074 0.842344C0.204817 1.34083 -0.0301408 1.99502 0.0031026 2.66319V15.9791C-0.0094256 16.5079 0.137944 17.0284 0.426427 17.4742C0.71491 17.9201 1.13144 18.2711 1.62292 18.4825C1.37432 19.0825 1.27744 19.7331 1.34062 20.3782C1.4038 21.0233 1.62516 21.6436 1.98558 22.1855C2.34601 22.7274 2.83468 23.1746 3.40944 23.4886C3.98419 23.8027 4.62777 23.974 5.28463 23.9879C5.94149 24.0018 6.59192 23.8578 7.17978 23.5683C7.76764 23.2789 8.27529 22.8527 8.65892 22.3266C9.04254 21.8004 9.29063 21.19 9.38177 20.5482C9.47291 19.9063 9.40436 19.2522 9.18205 18.6423H17.7671C17.5451 19.2457 17.4737 19.893 17.5591 20.5293C17.6445 21.1657 17.884 21.7724 18.2575 22.298C18.631 22.8237 19.1273 23.2528 19.7046 23.549C20.2818 23.8453 20.9229 24 21.5736 24C22.2243 24 22.8654 23.8453 23.4427 23.549C24.0199 23.2528 24.5163 22.8237 24.8898 22.298C25.2632 21.7724 25.5028 21.1657 25.5882 20.5293C25.6735 19.893 25.6022 19.2457 25.3802 18.6423H25.6502C26.0082 18.6423 26.3515 18.502 26.6046 18.2523C26.8578 18.0026 27 17.6639 27 17.3107V11.9843C26.9959 11.7821 26.9451 11.5835 26.8515 11.4035C26.758 11.2236 26.6241 11.067 26.4601 10.9457V10.9457ZM24.3003 12.6235V15.9791H20.2508V9.42768L24.3003 12.6235ZM6.75233 19.9739C6.75233 20.2373 6.67316 20.4947 6.52484 20.7137C6.37651 20.9327 6.1657 21.1033 5.91905 21.2041C5.67239 21.3049 5.40099 21.3313 5.13914 21.2799C4.8773 21.2285 4.63678 21.1017 4.448 20.9155C4.25922 20.7293 4.13066 20.492 4.07857 20.2337C4.02649 19.9754 4.05322 19.7076 4.15539 19.4643C4.25755 19.221 4.43057 19.013 4.65255 18.8667C4.87453 18.7204 5.13551 18.6423 5.40248 18.6423C5.76048 18.6423 6.10382 18.7826 6.35697 19.0323C6.61011 19.282 6.75233 19.6207 6.75233 19.9739ZM22.9505 19.9739C22.9505 20.2373 22.8713 20.4947 22.723 20.7137C22.5747 20.9327 22.3638 21.1033 22.1172 21.2041C21.8705 21.3049 21.5991 21.3313 21.3373 21.2799C21.0754 21.2285 20.8349 21.1017 20.6461 20.9155C20.4574 20.7293 20.3288 20.492 20.2767 20.2337C20.2246 19.9754 20.2514 19.7076 20.3535 19.4643C20.4557 19.221 20.6287 19.013 20.8507 18.8667C21.0727 18.7204 21.3336 18.6423 21.6006 18.6423C21.9586 18.6423 22.302 18.7826 22.5551 19.0323C22.8083 19.282 22.9505 19.6207 22.9505 19.9739Z" fill="black"/>
</svg>
