<svg width="29" height="27" viewBox="0 0 29 27" fill="none" xmlns="http://www.w3.org/2000/svg">
<path d="M28.2035 3.91143L24.7989 0.741575C23.7369 -0.247192 22.0146 -0.247192 20.9526 0.741575L17.7496 3.72369L25.0006 10.4747L28.2035 7.49261C29.2655 6.50384 29.2655 4.90072 28.2035 3.91143V3.91143ZM14.225 2.82879C13.3403 2.00509 11.9062 2.00509 11.0215 2.82879L4.29386 9.09309C3.93987 9.42268 3.93987 9.95688 4.29386 10.2859L5.57561 11.4793C5.9296 11.8089 6.50336 11.8089 6.85735 11.4793L12.6243 6.10992L13.9061 7.30277L5.32186 15.2946C2.3485 18.063 0.475309 21.691 0.0102438 25.582L0.0085446 25.5942C-0.0877419 26.3999 0.643469 27.0813 1.50892 26.9921C5.69349 26.5619 9.5958 24.8173 12.5728 22.0457L23.7188 11.6681L19.0308 7.30329L14.225 2.82879V2.82879Z" fill="black"/>
</svg>
