<svg width="28" height="27" viewBox="0 0 28 27" fill="none" xmlns="http://www.w3.org/2000/svg">
<path d="M13.2222 0C5.92667 0 0 3.82263 0 8.52632C0 10.2174 0.777778 11.8516 2.24 13.2584C0.792883 14.9512 0.00467935 17.0364 0 19.1842V24.1579C0 25.7353 1.38444 27 3.11111 27H23.3333C25.06 27 26.4444 25.7353 26.4444 24.1579V19.1842C26.4444 17.4505 25.9156 15.7311 24.8889 14.2105L28 11.3684L23.3333 7.10526L20.0667 10.0895C17.963 9.05655 15.6105 8.51928 13.2222 8.52632C10.3444 8.52632 7.7 9.27947 5.52222 10.53C4.96222 9.90474 4.66667 9.23684 4.66667 8.52632C4.66667 5.98263 8.49333 3.90789 13.2222 3.90789C15.4467 3.90789 17.5778 4.37684 19.18 5.21526L22.3222 2.34474C19.8644 0.838421 16.6133 0 13.2222 0ZM13.2222 11.3684C13.7511 11.3684 14.2644 11.4253 14.7778 11.4963C9.94 12.1784 6.22222 15.9868 6.22222 20.6053V24.1579H3.11111V20.6053C3.11111 18.1555 4.17639 15.8061 6.07259 14.0738C7.96879 12.3416 10.5406 11.3684 13.2222 11.3684V11.3684Z" fill="black"/>
</svg>
