<svg width="25" height="25" viewBox="0 0 25 25" fill="none" xmlns="http://www.w3.org/2000/svg">
<path d="M23.4375 20.9263V23.2143C23.4375 23.7165 23.2869 24.1397 22.9858 24.4838C22.6847 24.8279 22.3185 25 21.8872 25C21.4559 25 21.0856 24.8279 20.7764 24.4838C20.4671 24.1397 20.3125 23.7165 20.3125 23.2143V21.4286H4.6875V23.2143C4.6875 23.7165 4.53695 24.1397 4.23584 24.4838C3.93473 24.8279 3.56852 25 3.13721 25C2.70589 25 2.33561 24.8279 2.02637 24.4838C1.71712 24.1397 1.5625 23.7165 1.5625 23.2143V20.9263C1.09049 20.6101 0.712077 20.1823 0.427246 19.6429C0.142415 19.1034 0 18.5082 0 17.8571V12.5C0 11.9792 0.187174 11.3793 0.561523 10.7003C0.935872 10.0214 1.40788 9.375 1.97754 8.76116L3.125 3.57143C3.125 2.58557 3.43018 1.74386 4.04053 1.04632C4.65088 0.348772 5.38737 0 6.25 0H18.75C19.6126 0 20.3491 0.348772 20.9595 1.04632C21.5698 1.74386 21.875 2.58557 21.875 3.57143L23.0225 8.76116C23.5921 9.375 24.0641 10.0214 24.4385 10.7003C24.8128 11.3793 25 11.9792 25 12.5V17.8571C25 18.5082 24.8576 19.1034 24.5728 19.6429C24.2879 20.1823 23.9095 20.6101 23.4375 20.9263ZM3.125 16.0854C3.125 16.5783 3.27555 16.9968 3.57666 17.341C3.87777 17.6851 4.24398 17.8571 4.67529 17.8571C5.10661 17.8571 5.47689 17.6851 5.78613 17.341C6.09538 16.9968 6.25 16.5783 6.25 16.0854C6.25 15.5924 6.09538 15.1693 5.78613 14.8158C5.47689 14.4624 5.10661 14.2857 4.67529 14.2857C4.24398 14.2857 3.87777 14.4624 3.57666 14.8158C3.27555 15.1693 3.125 15.5924 3.125 16.0854ZM19.5312 5.35714C19.5312 4.87351 19.3807 4.45499 19.0796 4.10156C18.7785 3.74814 18.4082 3.57143 17.9688 3.57143H7.03125C6.60807 3.57143 6.24186 3.74814 5.93262 4.10156C5.62337 4.45499 5.46875 4.87351 5.46875 5.35714L4.6875 8.92857C4.6875 9.4308 4.83805 9.85398 5.13916 10.1981C5.44027 10.5422 5.81055 10.7143 6.25 10.7143H18.75C19.1895 10.7143 19.5597 10.5422 19.8608 10.1981C20.1619 9.85398 20.3125 9.4308 20.3125 8.92857L19.5312 5.35714ZM20.3247 14.2857C19.8934 14.2857 19.5231 14.4624 19.2139 14.8158C18.9046 15.1693 18.75 15.5924 18.75 16.0854C18.75 16.5783 18.9046 16.9968 19.2139 17.341C19.5231 17.6851 19.8934 17.8571 20.3247 17.8571C20.756 17.8571 21.1222 17.6851 21.4233 17.341C21.7244 16.9968 21.875 16.5783 21.875 16.0854C21.875 15.5924 21.7244 15.1693 21.4233 14.8158C21.1222 14.4624 20.756 14.2857 20.3247 14.2857Z" fill="black"/>
</svg>
