<svg width="35" height="30" viewBox="0 0 35 30" fill="none" xmlns="http://www.w3.org/2000/svg">
<path d="M34.1532 6.1479C33.6102 4.94483 32.8271 3.85462 31.848 2.93829C30.8681 2.01924 29.7127 1.28887 28.4448 0.786925C27.13 0.264367 25.7199 -0.003108 24.2962 2.72463e-05C22.2989 2.72463e-05 20.3501 0.523333 18.6567 1.5118C18.2515 1.74826 17.8666 2.00797 17.502 2.29095C17.1374 2.00797 16.7525 1.74826 16.3474 1.5118C14.6539 0.523333 12.7052 2.72463e-05 10.7078 2.72463e-05C9.26958 2.72463e-05 7.8759 0.263619 6.5592 0.786925C5.28706 1.29085 4.14052 2.01572 3.15603 2.93829C2.17558 3.85358 1.39237 4.94406 0.850792 6.1479C0.287649 7.39996 0 8.72955 0 10.0979C0 11.3887 0.275495 12.7338 0.822432 14.1022C1.28024 15.2457 1.93656 16.4318 2.7752 17.6296C4.10406 19.5252 5.93123 21.5021 8.20001 23.5062C11.9597 26.8282 15.6829 29.123 15.8409 29.216L16.8011 29.8052C17.2265 30.0649 17.7734 30.0649 18.1988 29.8052L19.159 29.216C19.317 29.1191 23.0362 26.8282 26.7999 23.5062C29.0687 21.5021 30.8959 19.5252 32.2248 17.6296C33.0634 16.4318 33.7238 15.2457 34.1775 14.1022C34.7245 12.7338 35 11.3887 35 10.0979C35.004 8.72955 34.7164 7.39996 34.1532 6.1479V6.1479Z" fill="#6B6C6A"/>
</svg>
