<svg width="25" height="25" viewBox="0 0 25 25" fill="none" xmlns="http://www.w3.org/2000/svg">
<path d="M2.835 23.5295H2.5C1.83696 23.5295 1.20107 23.2197 0.732233 22.6681C0.263392 22.1165 0 21.3684 0 20.5883V2.94119C0 2.16114 0.263392 1.41304 0.732233 0.861455C1.20107 0.309875 1.83696 0 2.5 0H22.5C23.163 0 23.7989 0.309875 24.2678 0.861455C24.7366 1.41304 25 2.16114 25 2.94119V20.5883C25 21.3684 24.7366 22.1165 24.2678 22.6681C23.7989 23.2197 23.163 23.5295 22.5 23.5295H22.165C21.9456 23.9766 21.63 24.3479 21.2499 24.606C20.8699 24.8641 20.4388 25 20 25C19.5612 25 19.1301 24.8641 18.7501 24.606C18.37 24.3479 18.0544 23.9766 17.835 23.5295H7.165C6.94557 23.9766 6.62998 24.3479 6.24995 24.606C5.86991 24.8641 5.43882 25 5 25C4.56118 25 4.13009 24.8641 3.75005 24.606C3.37002 24.3479 3.05443 23.9766 2.835 23.5295V23.5295ZM2.5 2.94119V20.5883H22.5V2.94119H2.5ZM5 11.7648H20V17.6472H5V11.7648ZM5 5.88238H11.25V8.82358H5V5.88238ZM10 13.2354V14.706H15V13.2354H10ZM15 8.82358C14.6685 8.82358 14.3505 8.66864 14.1161 8.39285C13.8817 8.11706 13.75 7.74301 13.75 7.35298C13.75 6.96295 13.8817 6.5889 14.1161 6.31311C14.3505 6.03732 14.6685 5.88238 15 5.88238C15.3315 5.88238 15.6495 6.03732 15.8839 6.31311C16.1183 6.5889 16.25 6.96295 16.25 7.35298C16.25 7.74301 16.1183 8.11706 15.8839 8.39285C15.6495 8.66864 15.3315 8.82358 15 8.82358ZM18.75 8.82358C18.4185 8.82358 18.1005 8.66864 17.8661 8.39285C17.6317 8.11706 17.5 7.74301 17.5 7.35298C17.5 6.96295 17.6317 6.5889 17.8661 6.31311C18.1005 6.03732 18.4185 5.88238 18.75 5.88238C19.0815 5.88238 19.3995 6.03732 19.6339 6.31311C19.8683 6.5889 20 6.96295 20 7.35298C20 7.74301 19.8683 8.11706 19.6339 8.39285C19.3995 8.66864 19.0815 8.82358 18.75 8.82358Z" fill="black"/>
</svg>
