<svg width="27" height="22" viewBox="0 0 27 22" fill="none" xmlns="http://www.w3.org/2000/svg">
<path d="M4.05 7.33333C3.69196 7.33333 3.34858 7.4621 3.09541 7.69131C2.84223 7.92053 2.7 8.2314 2.7 8.55556V18.3333C2.7 18.6575 2.84223 18.9684 3.09541 19.1976C3.34858 19.4268 3.69196 19.5556 4.05 19.5556H22.95C23.308 19.5556 23.6514 19.4268 23.9046 19.1976C24.1578 18.9684 24.3 18.6575 24.3 18.3333V8.55556C24.3 8.2314 24.1578 7.92053 23.9046 7.69131C23.6514 7.4621 23.308 7.33333 22.95 7.33333H4.05ZM6.75 4.88889V3.66667C6.75 2.69421 7.1767 1.76158 7.93622 1.07394C8.69574 0.386309 9.72587 0 10.8 0H16.2C17.2741 0 18.3043 0.386309 19.0638 1.07394C19.8233 1.76158 20.25 2.69421 20.25 3.66667V4.88889H22.95C24.0241 4.88889 25.0543 5.2752 25.8138 5.96283C26.5733 6.65046 27 7.5831 27 8.55556V18.3333C27 19.3058 26.5733 20.2384 25.8138 20.9261C25.0543 21.6137 24.0241 22 22.95 22H4.05C2.97587 22 1.94574 21.6137 1.18622 20.9261C0.426695 20.2384 0 19.3058 0 18.3333V8.55556C0 7.5831 0.426695 6.65046 1.18622 5.96283C1.94574 5.2752 2.97587 4.88889 4.05 4.88889H6.75ZM9.45 4.88889H17.55V3.66667C17.55 3.34251 17.4078 3.03164 17.1546 2.80243C16.9014 2.57321 16.558 2.44444 16.2 2.44444H10.8C10.442 2.44444 10.0986 2.57321 9.84541 2.80243C9.59223 3.03164 9.45 3.34251 9.45 3.66667V4.88889ZM12.15 9.77778H14.85V17.1111H12.15V9.77778ZM9.45 12.2222H17.55V14.6667H9.45V12.2222Z" fill="black"/>
</svg>
