<svg width="26" height="21" viewBox="0 0 26 21" fill="none" xmlns="http://www.w3.org/2000/svg">
<path d="M16.5455 21C16.1909 21 15.9545 20.895 15.7182 20.685C15.2455 20.265 15.3636 19.635 15.8364 19.215C16.4273 18.795 17.8455 17.325 17.8455 16.17C17.8455 15.54 17.3727 14.91 16.9 14.175C16.3091 13.335 15.4818 12.285 15.4818 11.025C15.4818 8.61 17.0182 7.665 17.2545 7.56C17.8455 7.245 18.5545 7.455 18.9091 7.875C19.2636 8.4 19.0273 9.03 18.5545 9.345C18.5545 9.345 17.9636 9.765 17.9636 11.025C17.9636 11.655 18.4364 12.285 18.9091 13.02C19.5 13.86 20.3273 14.91 20.3273 16.17C20.3273 18.48 17.8455 20.58 17.6091 20.79C17.1364 20.895 16.7818 21 16.5455 21V21ZM12.6455 20.685C12.8818 20.475 15.3636 18.375 15.3636 16.065C15.3636 14.805 14.6545 13.755 13.9455 12.915C13.4727 12.18 13 11.55 13 10.92C13 9.66 13.5909 9.24 13.5909 9.24C14.1818 8.925 14.3 8.295 13.9455 7.77C13.5909 7.245 12.8818 7.14 12.2909 7.455C12.0545 7.56 10.5182 8.505 10.5182 10.92C10.5182 12.18 11.2273 13.23 11.9364 14.07C12.4091 14.805 12.8818 15.435 12.8818 16.065C12.8818 17.22 11.4636 18.69 10.8727 19.11C10.4 19.53 10.4 20.16 10.7545 20.58C10.9909 20.79 11.3455 20.895 11.5818 20.895C12.0545 21 12.4091 20.895 12.6455 20.685V20.685ZM7.91818 20.685C8.15454 20.475 10.6364 18.375 10.6364 16.065C10.6364 14.805 9.92727 13.755 9.21818 12.915C8.74545 12.285 8.27273 11.655 8.27273 10.92C8.27273 9.66 8.86364 9.24 8.86364 9.24C9.45455 8.925 9.57273 8.295 9.21818 7.77C8.98182 7.35 8.15455 7.245 7.68182 7.455C7.44545 7.56 5.90909 8.505 5.90909 10.92C5.90909 12.18 6.61818 13.23 7.32727 14.07C7.8 14.805 8.27273 15.435 8.27273 16.065C8.27273 17.22 6.85455 18.69 6.26364 19.11C5.79091 19.53 5.79091 20.16 6.14545 20.58C6.5 20.895 6.73636 21 7.09091 21C7.32727 21 7.68182 20.895 7.91818 20.685V20.685ZM13 0C9.92727 0 0 0.315 0 4.2C0 6.72 1.41818 13.02 2.12727 15.75H4.72727V13.65H4.01818C3.30909 10.605 2.36364 6.09 2.36364 4.2C2.36364 3.15 7.56364 2.1 13 2.1C18.4364 2.1 23.6364 3.15 23.6364 4.2C23.6364 6.09 22.6909 10.605 21.9818 13.65H21.2727V15.75H23.8727C24.5818 13.02 26 6.72 26 4.2C26 0.315 16.0727 0 13 0Z" fill="black"/>
</svg>
